# File created by Blade
# Date/Time:  Wed Sep 24 20:26:02 2014
# Frame Rate: 120.000 fps
#------------------------------------------------------
:FULLY-SPECIFIED
:DEGREES
534
root -7.537984 32.985522 1.635763 168.664960 -73.566307 -100.093193
Spine -29.599026 11.384216 -5.118515
Head -47.712134 7.319340 11.567902
LeftShoulder -9.031633 23.643045 12.957948
LeftArm 15.233200 39.474590 -68.764584
LeftForeArm 14.217552 -0.000000 16.598859
LeftHand -28.395822 -0.000000 -3.943324
LeftHandThumb1 -26.253704 0.000000 33.147579
RightShoulder -17.202220 7.445990 -21.674707
RightArm -26.119731 -33.965060 102.963147
RightForeArm -26.936045 -0.000000 15.476814
RightHand -3.484825 -0.000000 18.830240
RightHandThumb1 -24.326973 -0.000000 -32.862282
LeftUpLeg -62.867890 9.713208 -4.280646
LeftLeg -7.611364 -0.000000 0.000000
LeftFoot -10.576730 12.468345 -12.661961
LeftToeBase 7.063173 -0.000000 -0.000000
RightUpLeg 10.907631 -11.155481 -11.907793
RightLeg 16.914749 -0.000000 -0.000000
RightFoot 39.430739 4.401005 2.272879
RightToeBase 13.955154 -0.000000 -0.000000
535
root -7.519159 32.995435 1.634813 168.848551 -73.481571 -99.981337
Spine -29.594704 11.346937 -5.217057
Head -48.072785 7.335144 11.654219
LeftShoulder -9.064359 23.681170 13.012744
LeftArm 15.288404 39.368358 -68.715436
LeftForeArm 14.153428 -0.000000 16.583870
LeftHand -28.520905 -0.000000 -3.916437
LeftHandThumb1 -26.253704 0.000000 33.147579
RightShoulder -17.141204 7.419415 -21.574446
RightArm -26.119008 -33.895296 102.883616
RightForeArm -26.961227 -0.000000 15.491966
RightHand -3.475423 0.000000 18.824987
RightHandThumb1 -24.326973 -0.000000 -32.862282
LeftUpLeg -63.214899 9.839381 -4.401397
LeftLeg -7.621968 -0.000000 0.000000
LeftFoot -10.591038 12.257660 -12.971859
LeftToeBase 7.270715 -0.000000 -0.000000
RightUpLeg 10.955848 -11.170567 -11.963388
RightLeg 16.928456 -0.000000 -0.000000
RightFoot 39.511534 4.351173 2.258912
RightToeBase 13.967350 -0.000000 -0.000000
536
root -7.501571 33.006737 1.632744 168.928323 -73.385709 -99.742287
Spine -29.623433 11.327624 -5.279571
Head -48.421845 7.316356 11.728895
LeftShoulder -9.100713 23.691458 13.067965
LeftArm 15.295817 39.249692 -68.709797
LeftForeArm 14.201978 -0.000000 16.567931
LeftHand -28.471042 -0.000000 -3.926548
LeftHandThumb1 -26.253704 0.000000 33.147579
RightShoulder -17.123747 7.438605 -21.490841
RightArm -26.186635 -33.872251 102.847200
RightForeArm -27.070333 -0.000000 15.437815
RightHand -3.400417 -0.000000 18.843447
RightHandThumb1 -24.326973 -0.000000 -32.862282
LeftUpLeg -63.585576 9.978051 -4.514392
LeftLeg -7.631913 -0.000000 0.000000
LeftFoot -10.581720 12.046998 -13.237823
LeftToeBase 7.426970 -0.000000 -0.000000
RightUpLeg 10.975503 -11.171967 -11.965182
RightLeg 16.987805 -0.000000 -0.000000
RightFoot 39.418982 4.451925 2.166773
RightToeBase 14.168979 -0.000000 -0.000000
537
root -7.483027 33.016290 1.631176 169.031760 -73.292620 -99.524411
Spine -29.664322 11.323772 -5.350654
Head -48.755731 7.299655 11.762336
LeftShoulder -9.092305 23.715494 13.141847
LeftArm 15.297889 39.119603 -68.719915
LeftForeArm 14.250780 -0.000000 16.569754
LeftHand -28.596738 0.000000 -4.048296
LeftHandThumb1 -26.253704 0.000000 33.147579
RightShoulder -17.142575 7.407862 -21.452985
RightArm -26.189656 -33.909594 102.831937
RightForeArm -27.182867 -0.000000 15.341444
RightHand -3.279326 -0.000000 18.907289
RightHandThumb1 -24.326973 -0.000000 -32.862282
LeftUpLeg -63.962670 10.102834 -4.620354
LeftLeg -7.640128 -0.000000 0.000000
LeftFoot -10.542233 11.862606 -13.450006
LeftToeBase 7.461294 -0.000000 -0.000000
RightUpLeg 11.008490 -11.218326 -12.002864
RightLeg 16.991719 -0.000000 -0.000000
RightFoot 39.554435 4.460252 2.167161
RightToeBase 14.021824 -0.000000 -0.000000
538
root -7.466081 33.026179 1.629929 169.167236 -73.188109 -99.350421
Spine -29.709606 11.329568 -5.438957
Head -49.042292 7.288765 11.797606
LeftShoulder -9.098244 23.681961 13.212534
LeftArm 15.255607 39.005610 -68.753974
LeftForeArm 14.304942 -0.000000 16.524345
LeftHand -28.692432 0.000000 -3.758058
LeftHandThumb1 -26.253704 0.000000 33.147579
RightShoulder -17.084421 7.400282 -21.388617
RightArm -26.244567 -33.820743 102.767253
RightForeArm -27.081023 -0.000000 15.380420
RightHand -3.441895 -0.000000 19.173777
RightHandThumb1 -24.326973 -0.000000 -32.862282
LeftUpLeg -64.324708 10.235055 -4.738214
LeftLeg -7.658638 -0.000000 0.000000
LeftFoot -10.502792 11.706602 -13.636076
LeftToeBase 7.534220 -0.000000 -0.000000
RightUpLeg 11.045711 -11.206684 -12.040143
RightLeg 17.015512 -0.000000 -0.000000
RightFoot 39.616259 4.451694 2.326027
RightToeBase 14.371911 -0.000000 -0.000000
539
root -7.451232 33.035212 1.628019 169.357293 -73.069380 -99.254645
Spine -29.723748 11.358777 -5.553950
Head -49.367525 7.303235 11.841512
LeftShoulder -9.097365 23.677123 13.279082
LeftArm 15.276122 38.922255 -68.724303
LeftForeArm 14.308828 -0.000000 16.505145
LeftHand -28.783919 -0.000000 -3.516416
LeftHandThumb1 -26.253704 0.000000 33.147579
RightShoulder -17.111493 7.414188 -21.301225
RightArm -26.289837 -33.882014 102.744286
RightForeArm -27.210668 -0.000000 15.266854
RightHand -3.382775 -0.000000 19.226719
RightHandThumb1 -24.326973 -0.000000 -32.862282
LeftUpLeg -64.658724 10.382348 -4.865340
LeftLeg -7.678796 -0.000000 0.000000
LeftFoot -10.453536 11.575220 -13.746660
LeftToeBase 7.552376 -0.000000 -0.000000
RightUpLeg 11.108325 -11.165970 -12.099600
RightLeg 17.024467 -0.000000 -0.000000
RightFoot 39.683554 4.512471 2.332021
RightToeBase 14.086378 -0.000000 -0.000000
